<svg width="56" height="54" viewBox="0 0 56 54" fill="none" xmlns="http://www.w3.org/2000/svg">
<path d="M11.2866 53.231C11.0796 53.231 10.8726 53.167 10.6986 53.04C10.3906 52.816 10.2366 52.437 10.3016 52.062L13.3926 34.044L0.301612 21.285C0.0296121 21.019 -0.0683878 20.622 0.0486122 20.261C0.166612 19.899 0.479612 19.635 0.856612 19.58L18.9466 16.951L27.0376 0.558C27.2056 0.216 27.5536 0 27.9336 0C28.3146 0 28.6626 0.216 28.8296 0.558L36.9196 16.951L55.0106 19.58C55.3876 19.635 55.6996 19.898 55.8186 20.261C55.9356 20.622 55.8386 21.02 55.5656 21.285L42.4746 34.046L45.5646 52.063C45.6286 52.438 45.4746 52.817 45.1676 53.041C44.8596 53.267 44.4506 53.296 44.1136 53.117L27.9336 44.611L11.7516 53.117C11.6056 53.193 11.4456 53.231 11.2866 53.231ZM3.14861 21.267L15.1646 32.98C15.3996 33.209 15.5076 33.541 15.4516 33.865L12.6146 50.403L27.4686 42.595C27.7596 42.441 28.1066 42.441 28.3996 42.595L43.2516 50.403L40.4156 33.865C40.3596 33.541 40.4676 33.21 40.7026 32.98L52.7186 21.267L36.1136 18.854C35.7876 18.807 35.5066 18.602 35.3606 18.307L27.9336 3.261L20.5066 18.308C20.3606 18.603 20.0796 18.808 19.7536 18.855L3.14861 21.267Z" fill="white"/>
</svg>
