<svg width="62" height="57" viewBox="0 0 62 57" fill="none" xmlns="http://www.w3.org/2000/svg">
<path d="M56.8478 44.4486L46.9764 39.4989C46.0453 39.0315 45.4667 38.0926 45.4667 37.0479V33.544C45.7033 33.2538 45.9523 32.9232 46.2096 32.5584C47.4899 30.7448 48.516 28.7259 49.2621 26.5485C50.7201 25.878 51.6667 24.4323 51.6667 22.8V18.6545C51.6667 17.6565 51.2947 16.6896 50.6333 15.9341V10.4217C50.6912 9.85167 50.9185 6.45862 48.4716 3.6594C46.3491 1.2312 42.905 0 38.2333 0C33.5616 0 30.1175 1.2312 27.9951 3.65836C26.5122 5.35489 26.0131 7.26595 25.8623 8.63809C24.0911 7.71987 22.0038 7.25455 19.6333 7.25455C8.89803 7.25455 8.27287 16.4315 8.26667 16.5818V21.3273C7.59707 22.059 7.23333 22.9036 7.23333 23.7421V27.3217C7.23333 28.4399 7.73243 29.4825 8.58803 30.1872C9.44053 33.4103 11.5372 35.8457 12.3535 36.7007V39.5435C12.3535 40.3591 11.9112 41.1074 11.1435 41.5281L4.2687 45.8529C1.63577 47.2934 0 50.0574 0 53.0649V57H14.4667H16.5333H62V52.81C62 49.247 60.0253 46.0425 56.8478 44.4486ZM14.4667 52.6079V54.9273H2.06667V53.0649C2.06667 50.816 3.29013 48.7495 5.31237 47.6416L12.1861 43.3169C13.5635 42.5635 14.4191 41.1188 14.4191 39.5435V35.8219L14.0905 35.5141C14.0637 35.4892 11.3181 32.888 10.5069 29.3426L10.4129 28.9322L10.0595 28.7042C9.58417 28.3953 9.3 27.8782 9.3 27.3217V23.7421C9.3 23.369 9.55317 22.9254 9.99337 22.5254L10.3333 22.2176L10.3313 16.6419C10.3499 16.3445 10.8882 9.32727 19.6333 9.32727C22.1061 9.32727 24.1883 9.90038 25.8333 11.0311V15.9341C25.172 16.6896 24.8 17.6565 24.8 18.6545V22.8C24.8 23.1151 24.8362 23.4249 24.9044 23.7255C24.9323 23.8457 24.9881 23.9555 25.0263 24.0716C25.0831 24.2457 25.1286 24.425 25.2082 24.5898C25.2092 24.5919 25.2102 24.5929 25.2113 24.595C25.4758 25.1422 25.8612 25.6313 26.3469 26.0221C26.3521 26.0417 26.3583 26.0594 26.3634 26.078C26.4254 26.3153 26.4905 26.5516 26.5608 26.7827L26.6445 27.0532C26.659 27.1009 26.6765 27.1496 26.692 27.1973C26.7282 27.3092 26.7633 27.4201 26.8005 27.53C26.8625 27.7113 26.9276 27.8989 27.0031 28.1031C27.0351 28.1881 27.0702 28.2647 27.1033 28.3487C27.188 28.5653 27.2728 28.7746 27.3616 28.9819C27.3833 29.0317 27.4019 29.0855 27.4236 29.1343L27.4815 29.2648C27.5084 29.3249 27.5363 29.3788 27.5631 29.4379C27.6644 29.6597 27.7636 29.8742 27.8669 30.0815C27.8835 30.1147 27.899 30.1509 27.9155 30.1841C27.9806 30.3136 28.0457 30.4359 28.1108 30.5603C28.2224 30.7738 28.3319 30.9748 28.4415 31.1697C28.4952 31.265 28.5479 31.3583 28.6006 31.4485C28.7494 31.7034 28.891 31.9376 29.0284 32.1553C29.0584 32.2019 29.0873 32.2506 29.1162 32.2952C29.3663 32.6838 29.5833 32.9989 29.7631 33.2445C29.8106 33.3098 29.852 33.3657 29.8923 33.4207C29.915 33.4507 29.946 33.4942 29.9656 33.5212V36.9505C29.9656 37.9537 29.42 38.874 28.5427 39.3549L25.8085 40.8503L25.3322 40.8079L25.1379 41.2172L19.3244 44.3978C16.3277 46.0394 14.4667 49.1837 14.4667 52.6079ZM59.9333 54.9273H16.5333V52.6079C16.5333 49.9434 17.9821 47.4945 20.3143 46.2197L29.5327 41.1768C31.0754 40.3322 32.0333 38.7123 32.0333 36.9515V32.7874V32.7864L31.8329 32.546L31.7936 32.4993C31.7915 32.4962 31.7275 32.4185 31.6231 32.2817C31.6169 32.2734 31.6107 32.2651 31.6035 32.2568C31.5487 32.1853 31.4846 32.0993 31.4113 31.9967C31.4102 31.9946 31.4092 31.9936 31.4082 31.9915C31.2542 31.777 31.061 31.4982 30.846 31.1624C30.8409 31.1552 30.8367 31.1469 30.8316 31.1396C30.7303 30.9811 30.6228 30.808 30.5133 30.6245C30.505 30.6111 30.4968 30.5976 30.4885 30.5831C30.255 30.1903 30.007 29.7457 29.76 29.2534C29.76 29.2534 29.759 29.2524 29.759 29.2514C29.6277 28.9871 29.4965 28.7093 29.3684 28.4202C29.3508 28.3798 29.3322 28.3404 29.3146 28.3C29.2578 28.1704 29.201 28.0347 29.1431 27.8948C29.1224 27.844 29.1018 27.7911 29.0811 27.7393C29.0274 27.6035 28.9726 27.4667 28.9147 27.3103C28.8093 27.0284 28.7101 26.734 28.6151 26.4304L28.5582 26.2459C28.552 26.2252 28.5448 26.2045 28.5386 26.1827C28.4415 25.8552 28.3485 25.5205 28.2699 25.1764L28.1759 24.766L27.8235 24.538C27.2242 24.1504 26.8667 23.5006 26.8667 22.8V18.6545C26.8667 18.0731 27.1126 17.5311 27.559 17.1259L27.9 16.8181V10.3636V9.99676L27.8721 9.975C27.837 9.22675 27.8814 6.93327 29.5492 5.02533C31.2614 3.06556 34.1837 2.07273 38.2333 2.07273C42.2685 2.07273 45.1846 3.05831 46.8989 5.00356C48.9108 7.2846 48.578 10.203 48.576 10.2279L48.5667 16.8181L48.9077 17.1269C49.3541 17.5311 49.6 18.0731 49.6 18.6545V22.8C49.6 23.7047 49.0089 24.4965 48.1306 24.7681L47.616 24.9266L47.4507 25.4396C46.7594 27.5963 45.7746 29.5882 44.5222 31.3604C44.2153 31.7967 43.9167 32.1832 43.6573 32.4786L43.4 32.7729V37.0479C43.4 38.8823 44.4158 40.5311 46.0515 41.3519L55.923 46.3016C58.3968 47.5421 59.9333 50.0356 59.9333 52.81V54.9273Z" fill="white"/>
</svg>
