<svg width="47" height="60" viewBox="0 0 47 60" fill="none" xmlns="http://www.w3.org/2000/svg">
<path d="M32.414 0H0V60H47V14.586L32.414 0ZM33 3.414L43.586 14H33V3.414ZM2 58V2H31V16H45V58H2Z" fill="white"/>
<path d="M36 21H20C19.448 21 19 21.447 19 22C19 22.553 19.448 23 20 23H36C36.552 23 37 22.553 37 22C37 21.447 36.552 21 36 21Z" fill="white"/>
<path d="M16.3748 18.219L12.0738 21.66L10.7068 20.293C10.3158 19.902 9.68376 19.902 9.29276 20.293C8.90176 20.684 8.90176 21.316 9.29276 21.707L11.2928 23.707C11.4868 23.901 11.7428 24 11.9998 24C12.2198 24 12.4408 23.928 12.6238 23.781L17.6238 19.781C18.0558 19.435 18.1248 18.806 17.7798 18.375C17.4358 17.943 16.8058 17.874 16.3748 18.219Z" fill="white"/>
<path d="M36 32H20C19.448 32 19 32.447 19 33C19 33.553 19.448 34 20 34H36C36.552 34 37 33.553 37 33C37 32.447 36.552 32 36 32Z" fill="white"/>
<path d="M16.3748 29.219L12.0738 32.66L10.7068 31.293C10.3158 30.902 9.68376 30.902 9.29276 31.293C8.90176 31.684 8.90176 32.316 9.29276 32.707L11.2928 34.707C11.4868 34.901 11.7428 35 11.9998 35C12.2198 35 12.4408 34.928 12.6238 34.781L17.6238 30.781C18.0558 30.435 18.1248 29.806 17.7798 29.375C17.4358 28.943 16.8058 28.874 16.3748 29.219Z" fill="white"/>
<path d="M36 43H20C19.448 43 19 43.447 19 44C19 44.553 19.448 45 20 45H36C36.552 45 37 44.553 37 44C37 43.447 36.552 43 36 43Z" fill="white"/>
<path d="M16.3748 40.219L12.0738 43.66L10.7068 42.293C10.3158 41.902 9.68376 41.902 9.29276 42.293C8.90176 42.684 8.90176 43.316 9.29276 43.707L11.2928 45.707C11.4868 45.901 11.7428 46 11.9998 46C12.2198 46 12.4408 45.928 12.6238 45.781L17.6238 41.781C18.0558 41.435 18.1248 40.806 17.7798 40.375C17.4358 39.943 16.8058 39.874 16.3748 40.219Z" fill="white"/>
</svg>
