<svg width="58" height="58" viewBox="0 0 58 58" fill="none" xmlns="http://www.w3.org/2000/svg">
<path d="M54.319 37.839C54.762 35.918 55 33.96 55 32C55 22.905 50.369 14.623 42.611 9.84704C42.138 9.55704 41.524 9.70404 41.235 10.174C40.945 10.645 41.092 11.26 41.562 11.55C48.724 15.96 53 23.604 53 32C53 33.726 52.8 35.451 52.427 37.147C51.966 37.051 51.489 37 51 37C47.14 37 44 40.141 44 44C44 47.859 47.14 51 51 51C54.86 51 58 47.859 58 44C58 41.341 56.509 39.024 54.319 37.839ZM51 49C48.243 49 46 46.757 46 44C46 41.243 48.243 39 51 39C53.757 39 56 41.243 56 44C56 46.757 53.757 49 51 49Z" fill="white"/>
<path d="M38.171 54.182C35.256 55.388 32.171 56 29 56C22.615 56 16.473 53.425 11.983 48.908C13.229 47.643 14 45.911 14 44C14 40.141 10.86 37 7 37C3.14 37 0 40.141 0 44C0 47.859 3.14 51 7 51C8.226 51 9.378 50.681 10.381 50.125C15.26 55.136 21.994 58 29 58C32.435 58 35.778 57.337 38.936 56.029C39.446 55.818 39.689 55.233 39.478 54.722C39.267 54.213 38.681 53.971 38.171 54.182ZM2 44C2 41.243 4.243 39 7 39C9.757 39 12 41.243 12 44C12 46.757 9.757 49 7 49C4.243 49 2 46.757 2 44Z" fill="white"/>
<path d="M4.0001 31.213C4.0241 31.215 4.0481 31.216 4.0711 31.216C4.5921 31.216 5.03009 30.814 5.06809 30.286C5.7801 20.197 12.6541 11.766 22.2881 8.972C23.1421 11.874 25.8251 14 29.0001 14C32.8601 14 36.0001 10.859 36.0001 7C36.0001 3.141 32.8601 0 29.0001 0C25.1491 0 22.0151 3.127 22.0011 6.975C11.4201 9.922 3.8511 19.12 3.0731 30.146C3.0341 30.696 3.4491 31.175 4.0001 31.213ZM29.0001 2C31.7571 2 34.0001 4.243 34.0001 7C34.0001 9.757 31.7571 12 29.0001 12C26.2431 12 24.0001 9.757 24.0001 7C24.0001 4.243 26.2431 2 29.0001 2Z" fill="white"/>
</svg>
