<svg width="12" height="14" viewBox="0 0 12 14" fill="none" xmlns="http://www.w3.org/2000/svg">
<path d="M10.9091 5.95455C10.9091 9.80809 5.95455 13.1111 5.95455 13.1111C5.95455 13.1111 1 9.80809 1 5.95455C1 4.64052 1.522 3.38031 2.45115 2.45115C3.38031 1.522 4.64052 1 5.95455 1C7.26858 1 8.52879 1.522 9.45795 2.45115C10.3871 3.38031 10.9091 4.64052 10.9091 5.95455Z" stroke="#FDE428" stroke-linecap="round" stroke-linejoin="round"/>
<path d="M5.95474 7.60601C6.86685 7.60601 7.60626 6.8666 7.60626 5.9545C7.60626 5.04239 6.86685 4.30298 5.95474 4.30298C5.04263 4.30298 4.30322 5.04239 4.30322 5.9545C4.30322 6.8666 5.04263 7.60601 5.95474 7.60601Z" stroke="#FDE428" stroke-linecap="round" stroke-linejoin="round"/>
</svg>
