<svg width="28" height="28" viewBox="0 0 28 28" fill="none" xmlns="http://www.w3.org/2000/svg">
<path d="M21.4747 8.20644C22.4025 8.20644 23.1547 7.45427 23.1547 6.52644C23.1547 5.5986 22.4025 4.84644 21.4747 4.84644C20.5468 4.84644 19.7947 5.5986 19.7947 6.52644C19.7947 7.45427 20.5468 8.20644 21.4747 8.20644Z" fill="#002E5B"/>
<path d="M13.9998 6.81104C12.5779 6.81104 11.188 7.23266 10.0058 8.0226C8.82358 8.81254 7.90214 9.93531 7.35802 11.2489C6.81391 12.5625 6.67154 14.008 6.94893 15.4025C7.22632 16.7971 7.911 18.078 8.9164 19.0834C9.9218 20.0888 11.2028 20.7735 12.5973 21.0509C13.9918 21.3283 15.4373 21.1859 16.7509 20.6418C18.0645 20.0977 19.1873 19.1763 19.9772 17.994C20.7672 16.8118 21.1888 15.4219 21.1888 14C21.1888 12.0934 20.4314 10.2648 19.0832 8.91664C17.735 7.56845 15.9064 6.81104 13.9998 6.81104ZM13.9998 18.6667C13.0768 18.6667 12.1746 18.393 11.4071 17.8802C10.6397 17.3674 10.0416 16.6386 9.68836 15.7859C9.33515 14.9332 9.24273 13.9949 9.4228 13.0896C9.60286 12.1844 10.0473 11.3528 10.7 10.7002C11.3526 10.0476 12.1841 9.6031 13.0894 9.42304C13.9946 9.24297 14.9329 9.33539 15.7857 9.6886C16.6384 10.0418 17.3672 10.6399 17.88 11.4074C18.3928 12.1748 18.6665 13.0771 18.6665 14C18.6665 15.2377 18.1748 16.4247 17.2996 17.2999C16.4245 18.175 15.2375 18.6667 13.9998 18.6667Z" fill="#002E5B"/>
<path d="M14 2.52233C17.738 2.52233 18.1813 2.53633 19.6572 2.604C20.5448 2.61454 21.424 2.77752 22.2565 3.08583C22.8604 3.31881 23.4089 3.67564 23.8666 4.13336C24.3244 4.59108 24.6812 5.13956 24.9142 5.7435C25.2225 6.57595 25.3855 7.45519 25.396 8.34283C25.4637 9.81867 25.4777 10.262 25.4777 14.0012C25.4777 17.7403 25.4637 18.1813 25.396 19.6572C25.3855 20.5448 25.2225 21.424 24.9142 22.2565C24.6812 22.8604 24.3244 23.4089 23.8666 23.8666C23.4089 24.3244 22.8604 24.6812 22.2565 24.9142C21.424 25.2225 20.5448 25.3855 19.6572 25.396C18.1813 25.4637 17.738 25.4777 14 25.4777C10.262 25.4777 9.81867 25.4637 8.34283 25.396C7.45519 25.3855 6.57595 25.2225 5.7435 24.9142C5.13956 24.6812 4.59108 24.3244 4.13336 23.8666C3.67564 23.4089 3.31881 22.8604 3.08583 22.2565C2.77752 21.424 2.61454 20.5448 2.604 19.6572C2.53633 18.1813 2.52233 17.738 2.52233 14C2.52233 10.262 2.53633 9.81867 2.604 8.34283C2.61454 7.45519 2.77752 6.57595 3.08583 5.7435C3.31881 5.13956 3.67564 4.59108 4.13336 4.13336C4.59108 3.67564 5.13956 3.31881 5.7435 3.08583C6.57595 2.77752 7.45519 2.61454 8.34283 2.604C9.81867 2.53633 10.262 2.52233 14 2.52233ZM14 0C10.1978 0 9.72067 0.0163334 8.22733 0.084C7.06624 0.107445 5.91752 0.327564 4.83 0.735C3.89984 1.09468 3.0551 1.64474 2.34992 2.34992C1.64474 3.0551 1.09468 3.89984 0.735 4.83C0.327435 5.91788 0.107314 7.06701 0.084 8.2285C0.0163334 9.72183 0 10.1967 0 14C0 17.8033 0.0163334 18.2793 0.084 19.7727C0.107445 20.9338 0.327564 22.0825 0.735 23.17C1.09468 24.1002 1.64474 24.9449 2.34992 25.6501C3.0551 26.3553 3.89984 26.9053 4.83 27.265C5.91788 27.6726 7.06701 27.8927 8.2285 27.916C9.72183 27.9837 10.1978 28 14 28C17.8022 28 18.2793 27.9837 19.7727 27.916C20.9342 27.8927 22.0833 27.6726 23.1712 27.265C24.1013 26.9053 24.9461 26.3553 25.6512 25.6501C26.3564 24.9449 26.9065 24.1002 27.2662 23.17C27.6733 22.082 27.8931 20.9329 27.916 19.7715C27.9837 18.2782 28 17.8033 28 14C28 10.1967 27.9837 9.72067 27.916 8.22733C27.8926 7.06624 27.6724 5.91752 27.265 4.83C26.9053 3.89984 26.3553 3.0551 25.6501 2.34992C24.9449 1.64474 24.1002 1.09468 23.17 0.735C22.082 0.327833 20.9329 0.108107 19.7715 0.0851666C18.2782 0.0151666 17.8033 0 14 0Z" fill="#002E5B"/>
</svg>
