<svg width="77" height="13" viewBox="0 0 77 13" fill="none" xmlns="http://www.w3.org/2000/svg">
<path d="M7 1L8.854 4.6204L13 5.20452L10 8.02103L10.708 12L7 10.1204L3.292 12L4 8.02103L1 5.20452L5.146 4.6204L7 1Z" fill="#FDE428" stroke="#FDE428" stroke-linecap="round" stroke-linejoin="round"/>
<path d="M23 1L24.854 4.6204L29 5.20452L26 8.02103L26.708 12L23 10.1204L19.292 12L20 8.02103L17 5.20452L21.146 4.6204L23 1Z" fill="#FDE428" stroke="#FDE428" stroke-linecap="round" stroke-linejoin="round"/>
<path d="M39 1L40.854 4.6204L45 5.20452L42 8.02103L42.708 12L39 10.1204L35.292 12L36 8.02103L33 5.20452L37.146 4.6204L39 1Z" fill="#FDE428" stroke="#FDE428" stroke-linecap="round" stroke-linejoin="round"/>
<path d="M55 1L56.854 4.6204L61 5.20452L58 8.02103L58.708 12L55 10.1204L51.292 12L52 8.02103L49 5.20452L53.146 4.6204L55 1Z" fill="#FDE428" stroke="#FDE428" stroke-linecap="round" stroke-linejoin="round"/>
<path d="M71 1L72.854 4.6204L77 5.20452L74 8.02103L74.708 12L71 10.1204L67.292 12L68 8.02103L65 5.20452L69.146 4.6204L71 1Z" fill="#D1D1D1"/>
</svg>
